<svg xmlns="http://www.w3.org/2000/svg" width="208.164" height="30.573" viewBox="0 0 208.164 30.573">
  <g id="Group_16" data-name="Group 16" transform="translate(-35.832 -203.477)">
    <g id="Group_8" data-name="Group 8" transform="translate(77.228 203.477)">
      <path id="Path_2" data-name="Path 2" d="M69.735,204.02H67.542v-.48h5.185v.48H70.534v5.224h-.8Z" transform="translate(-67.542 -203.458)" fill="#1a1818"/>
      <path id="Path_3" data-name="Path 3" d="M74.831,203.54h.8v2.535h3.342V203.54h.8v5.706h-.8v-2.7H75.63v2.7h-.8Z" transform="translate(-65.315 -203.458)" fill="#1a1818"/>
      <path id="Path_4" data-name="Path 4" d="M82.3,203.54h3.928v.49H83.1v2.038h2.332v.488H83.1v2.2h3.236v.49H82.3Z" transform="translate(-63.034 -203.458)" fill="#1a1818"/>
      <rect id="Rectangle_4" data-name="Rectangle 4" width="0.799" height="5.705" transform="translate(33.107 0.082)" fill="#1a1818"/>
      <path id="Path_5" data-name="Path 5" d="M101.348,203.54h.57v5.73H101.6l-3.824-4.752v4.728h-.57V203.54h.758l3.382,4.214Z" transform="translate(-58.48 -203.458)" fill="#1a1818"/>
      <g id="Group_2" data-name="Group 2" transform="translate(47.614)">
        <path id="Path_6" data-name="Path 6" d="M106.615,206.8l-.782-.211c-.971-.261-1.525-.636-1.525-1.526,0-.928.849-1.589,1.988-1.589a2.333,2.333,0,0,1,2.055,1.043l-.4.384a1.828,1.828,0,0,0-1.655-.937c-.717,0-1.231.351-1.231.929,0,.554.351.774,1.06.962l.766.2c.954.252,1.54.676,1.54,1.523a1.891,1.891,0,0,1-2.111,1.761,2.553,2.553,0,0,1-2.307-1.239l.409-.342a2.13,2.13,0,0,0,1.9,1.067c.774,0,1.354-.342,1.354-1.026,0-.587-.416-.832-1.06-1" transform="translate(-104.015 -203.477)" fill="#1a1818"/>
      </g>
      <path id="Path_7" data-name="Path 7" d="M112.479,204.02h-2.193v-.48h5.185v.48h-2.193v5.224h-.8Z" transform="translate(-54.485 -203.458)" fill="#1a1818"/>
      <rect id="Rectangle_5" data-name="Rectangle 5" width="0.799" height="5.705" transform="translate(65.316 0.082)" fill="#1a1818"/>
      <path id="Path_8" data-name="Path 8" d="M123.7,204.02h-2.193v-.48H126.7v.48H124.5v5.224h-.8Z" transform="translate(-51.056 -203.458)" fill="#1a1818"/>
      <g id="Group_3" data-name="Group 3" transform="translate(79.873 0.082)">
        <path id="Path_9" data-name="Path 9" d="M133.347,203.54v3.513a2.311,2.311,0,0,1-4.621,0V203.54h.8v3.424c0,1.172.627,1.809,1.637,1.809s1.615-.563,1.615-1.809V203.54Z" transform="translate(-128.726 -203.54)" fill="#1a1818"/>
      </g>
      <path id="Path_10" data-name="Path 10" d="M137.7,204.02h-2.193v-.48h5.185v.48H138.5v5.224h-.8Z" transform="translate(-46.781 -203.458)" fill="#1a1818"/>
      <path id="Path_11" data-name="Path 11" d="M142.8,203.54h3.928v.49H143.6v2.038h2.332v.488H143.6v2.2h3.236v.49H142.8Z" transform="translate(-44.554 -203.458)" fill="#1a1818"/>
      <g id="Group_4" data-name="Group 4" transform="translate(111.586)">
        <path id="Path_12" data-name="Path 12" d="M155.863,208.889c1.2,0,1.94-.962,1.94-2.478s-.741-2.478-1.94-2.478-1.941.961-1.941,2.478.743,2.478,1.941,2.478m0-5.412a2.936,2.936,0,1,1-2.845,2.935,2.831,2.831,0,0,1,2.845-2.935" transform="translate(-153.018 -203.477)" fill="#1a1818"/>
      </g>
      <path id="Path_13" data-name="Path 13" d="M160.675,203.54h3.79v.49h-2.991v2.134h2.332v.5h-2.332v2.584h-.8Z" transform="translate(-39.093 -203.458)" fill="#1a1818"/>
      <path id="Path_14" data-name="Path 14" d="M69.735,204.02H67.542v-.48h5.185v.48H70.534v5.224h-.8Z" transform="translate(-67.542 -203.458)" fill="#1a1818"/>
      <path id="Path_15" data-name="Path 15" d="M74.831,203.54h.8v2.535h3.342V203.54h.8v5.706h-.8v-2.7H75.63v2.7h-.8Z" transform="translate(-65.315 -203.458)" fill="#1a1818"/>
      <path id="Path_16" data-name="Path 16" d="M82.3,203.54h3.928v.49H83.1v2.038h2.332v.488H83.1v2.2h3.236v.49H82.3Z" transform="translate(-63.034 -203.458)" fill="#1a1818"/>
      <rect id="Rectangle_6" data-name="Rectangle 6" width="0.799" height="5.705" transform="translate(33.107 0.082)" fill="#1a1818"/>
      <path id="Path_17" data-name="Path 17" d="M101.348,203.54h.57v5.73H101.6l-3.824-4.752v4.728h-.57V203.54h.758l3.382,4.214Z" transform="translate(-58.48 -203.458)" fill="#1a1818"/>
      <g id="Group_5" data-name="Group 5" transform="translate(47.614)">
        <path id="Path_18" data-name="Path 18" d="M106.615,206.8l-.782-.211c-.971-.261-1.525-.636-1.525-1.526,0-.928.849-1.589,1.988-1.589a2.333,2.333,0,0,1,2.055,1.043l-.4.384a1.828,1.828,0,0,0-1.655-.937c-.717,0-1.231.351-1.231.929,0,.554.351.774,1.06.962l.766.2c.954.252,1.54.676,1.54,1.523a1.891,1.891,0,0,1-2.111,1.761,2.553,2.553,0,0,1-2.307-1.239l.409-.342a2.13,2.13,0,0,0,1.9,1.067c.774,0,1.354-.342,1.354-1.026,0-.587-.416-.832-1.06-1" transform="translate(-104.015 -203.477)" fill="#1a1818"/>
      </g>
      <path id="Path_19" data-name="Path 19" d="M112.479,204.02h-2.193v-.48h5.185v.48h-2.193v5.224h-.8Z" transform="translate(-54.485 -203.458)" fill="#1a1818"/>
      <rect id="Rectangle_7" data-name="Rectangle 7" width="0.799" height="5.705" transform="translate(65.316 0.082)" fill="#1a1818"/>
      <path id="Path_20" data-name="Path 20" d="M123.7,204.02h-2.193v-.48H126.7v.48H124.5v5.224h-.8Z" transform="translate(-51.056 -203.458)" fill="#1a1818"/>
      <g id="Group_6" data-name="Group 6" transform="translate(79.873 0.082)">
        <path id="Path_21" data-name="Path 21" d="M133.347,203.54v3.513a2.311,2.311,0,0,1-4.621,0V203.54h.8v3.424c0,1.172.627,1.809,1.637,1.809s1.615-.563,1.615-1.809V203.54Z" transform="translate(-128.726 -203.54)" fill="#1a1818"/>
      </g>
      <path id="Path_22" data-name="Path 22" d="M137.7,204.02h-2.193v-.48h5.185v.48H138.5v5.224h-.8Z" transform="translate(-46.781 -203.458)" fill="#1a1818"/>
      <path id="Path_23" data-name="Path 23" d="M142.8,203.54h3.928v.49H143.6v2.038h2.332v.488H143.6v2.2h3.236v.49H142.8Z" transform="translate(-44.554 -203.458)" fill="#1a1818"/>
      <g id="Group_7" data-name="Group 7" transform="translate(111.586)">
        <path id="Path_24" data-name="Path 24" d="M155.863,208.889c1.2,0,1.94-.962,1.94-2.478s-.741-2.478-1.94-2.478-1.941.961-1.941,2.478.743,2.478,1.941,2.478m0-5.412a2.936,2.936,0,1,1-2.845,2.935,2.831,2.831,0,0,1,2.845-2.935" transform="translate(-153.018 -203.477)" fill="#1a1818"/>
      </g>
      <path id="Path_25" data-name="Path 25" d="M160.675,203.54h3.79v.49h-2.991v2.134h2.332v.5h-2.332v2.584h-.8Z" transform="translate(-39.093 -203.458)" fill="#1a1818"/>
    </g>
    <g id="Group_15" data-name="Group 15" transform="translate(35.832 224.616)">
      <path id="Path_26" data-name="Path 26" d="M42.394,219.771v3.983h-4.86v-3.983h-1.7v9.171h1.7V224.67h4.86v4.271h1.7v-9.171Z" transform="translate(-35.832 -219.639)" fill="#1a1818"/>
      <g id="Group_9" data-name="Group 9" transform="translate(15.746 0.132)">
        <path id="Path_27" data-name="Path 27" d="M55.452,219.771v5.593a3.416,3.416,0,0,1-3.694,3.708c-2.436,0-3.864-1.363-3.864-3.694v-5.606h1.7v5.462c0,1.769.851,2.777,2.4,2.777s2.358-.89,2.358-2.777v-5.462Z" transform="translate(-47.893 -219.771)" fill="#1a1818"/>
      </g>
      <path id="Path_28" data-name="Path 28" d="M67.01,219.771l-2.7,6.6-2.7-6.6h-2.2v9.171h1.1v-7.6l3.117,7.637h.59l3.144-7.637v7.6H69.04v-9.171Z" transform="translate(-28.629 -219.639)" fill="#1a1818"/>
      <path id="Path_29" data-name="Path 29" d="M75.936,222.128l1.507,3.419H74.481Zm.039-2.4-4.021,9.222h1.074l1.086-2.555h3.694l1.127,2.555h1.8l-4.047-9.222Z" transform="translate(-24.798 -219.651)" fill="#1a1818"/>
      <path id="Path_30" data-name="Path 30" d="M90.5,219.771v6.13l-5-6.13H83.855v9.171h1.1V221.7l5.971,7.27H91.6v-9.2Z" transform="translate(-21.162 -219.639)" fill="#1a1818"/>
      <path id="Path_31" data-name="Path 31" d="M109.942,219.771l-2.7,6.6-2.7-6.6h-2.2v9.171h1.1v-7.6l3.117,7.637h.589l3.145-7.637v7.6h1.676v-9.171Z" transform="translate(-15.515 -219.639)" fill="#1a1818"/>
      <path id="Path_32" data-name="Path 32" d="M115.548,219.771v9.171h6.745V228H117.25V224.67h3.55v-.931h-3.55V220.7h4.834v-.93Z" transform="translate(-11.481 -219.639)" fill="#1a1818"/>
      <g id="Group_10" data-name="Group 10" transform="translate(116.88 0.001)">
        <path id="Path_33" data-name="Path 33" d="M130.131,219.671a3.992,3.992,0,0,1,3.655,2.017l-.708.748a3.03,3.03,0,0,0-2.764-1.8c-1.808,0-3.04,1.35-3.04,3.722,0,2.423,1.4,3.719,3.027,3.732a2.941,2.941,0,0,0,2.79-1.715l.695.537a4.007,4.007,0,0,1-3.721,2.188,4.516,4.516,0,0,1-4.7-4.637,4.654,4.654,0,0,1,4.768-4.795" transform="translate(-125.363 -219.671)" fill="#1a1818"/>
      </g>
      <path id="Path_34" data-name="Path 34" d="M143.516,219.771v3.983h-4.86v-3.983h-1.7v9.171h1.7V224.67h4.86v4.271h1.7v-9.171Z" transform="translate(-4.943 -219.639)" fill="#1a1818"/>
      <path id="Path_35" data-name="Path 35" d="M152.434,222.128l1.507,3.419h-2.959Zm.04-2.4-4.022,9.222h1.074l1.086-2.555h3.7l1.125,2.555h1.8l-4.047-9.222Z" transform="translate(-1.43 -219.651)" fill="#1a1818"/>
      <path id="Path_36" data-name="Path 36" d="M166.994,219.771v6.13l-5-6.13h-1.638v9.171h1.1V221.7l5.974,7.27h.667v-9.2Z" transform="translate(2.205 -219.639)" fill="#1a1818"/>
      <rect id="Rectangle_8" data-name="Rectangle 8" width="1.702" height="9.171" transform="translate(177.925 0.131)" fill="#1a1818"/>
      <g id="Group_11" data-name="Group 11" transform="translate(186.498)">
        <path id="Path_37" data-name="Path 37" d="M183.459,219.671a3.992,3.992,0,0,1,3.655,2.017l-.708.748a3.03,3.03,0,0,0-2.764-1.8c-1.808,0-3.039,1.35-3.039,3.722,0,2.423,1.4,3.719,3.026,3.732a2.941,2.941,0,0,0,2.79-1.715l.695.537a4.007,4.007,0,0,1-3.721,2.188,4.516,4.516,0,0,1-4.7-4.637,4.654,4.654,0,0,1,4.768-4.795" transform="translate(-178.691 -219.67)" fill="#1a1818"/>
        <path id="Path_38" data-name="Path 38" d="M193.838,225.212l-1.257-.341c-1.546-.432-2.463-1.086-2.463-2.514,0-1.572,1.4-2.687,3.341-2.687a3.879,3.879,0,0,1,3.392,1.651l-.693.747a3.075,3.075,0,0,0-2.711-1.493c-1.035,0-1.756.5-1.756,1.337,0,.772.486,1.1,1.572,1.388l1.27.354c1.506.406,2.476,1.1,2.476,2.527,0,1.808-1.572,2.922-3.536,2.922a4.294,4.294,0,0,1-3.812-1.952l.734-.681a3.535,3.535,0,0,0,3.078,1.677c1.114,0,1.978-.471,1.978-1.454,0-.851-.59-1.192-1.611-1.48" transform="translate(-175.341 -219.67)" fill="#1a1818"/>
      </g>
      <path id="Path_39" data-name="Path 39" d="M42.394,219.771v3.983h-4.86v-3.983h-1.7v9.171h1.7V224.67h4.86v4.271h1.7v-9.171Z" transform="translate(-35.832 -219.639)" fill="#1a1818"/>
      <g id="Group_12" data-name="Group 12" transform="translate(15.746 0.132)">
        <path id="Path_40" data-name="Path 40" d="M55.452,219.771v5.593a3.416,3.416,0,0,1-3.694,3.708c-2.436,0-3.864-1.363-3.864-3.694v-5.606h1.7v5.462c0,1.769.851,2.777,2.4,2.777s2.358-.89,2.358-2.777v-5.462Z" transform="translate(-47.893 -219.771)" fill="#1a1818"/>
      </g>
      <path id="Path_41" data-name="Path 41" d="M67.01,219.771l-2.7,6.6-2.7-6.6h-2.2v9.171h1.1v-7.6l3.117,7.637h.59l3.144-7.637v7.6H69.04v-9.171Z" transform="translate(-28.629 -219.639)" fill="#1a1818"/>
      <path id="Path_42" data-name="Path 42" d="M75.936,222.128l1.507,3.419H74.481Zm.039-2.4-4.021,9.222h1.074l1.086-2.555h3.694l1.127,2.555h1.8l-4.047-9.222Z" transform="translate(-24.798 -219.651)" fill="#1a1818"/>
      <path id="Path_43" data-name="Path 43" d="M90.5,219.771v6.13l-5-6.13H83.855v9.171h1.1V221.7l5.971,7.27H91.6v-9.2Z" transform="translate(-21.162 -219.639)" fill="#1a1818"/>
      <path id="Path_44" data-name="Path 44" d="M109.942,219.771l-2.7,6.6-2.7-6.6h-2.2v9.171h1.1v-7.6l3.117,7.637h.589l3.145-7.637v7.6h1.676v-9.171Z" transform="translate(-15.515 -219.639)" fill="#1a1818"/>
      <path id="Path_45" data-name="Path 45" d="M115.548,219.771v9.171h6.745V228H117.25V224.67h3.55v-.931h-3.55V220.7h4.834v-.93Z" transform="translate(-11.481 -219.639)" fill="#1a1818"/>
      <g id="Group_13" data-name="Group 13" transform="translate(116.88 0.001)">
        <path id="Path_46" data-name="Path 46" d="M130.131,219.671a3.992,3.992,0,0,1,3.655,2.017l-.708.748a3.03,3.03,0,0,0-2.764-1.8c-1.808,0-3.04,1.35-3.04,3.722,0,2.423,1.4,3.719,3.027,3.732a2.941,2.941,0,0,0,2.79-1.715l.695.537a4.007,4.007,0,0,1-3.721,2.188,4.516,4.516,0,0,1-4.7-4.637,4.654,4.654,0,0,1,4.768-4.795" transform="translate(-125.363 -219.671)" fill="#1a1818"/>
      </g>
      <path id="Path_47" data-name="Path 47" d="M143.516,219.771v3.983h-4.86v-3.983h-1.7v9.171h1.7V224.67h4.86v4.271h1.7v-9.171Z" transform="translate(-4.943 -219.639)" fill="#1a1818"/>
      <path id="Path_48" data-name="Path 48" d="M152.434,222.128l1.507,3.419h-2.959Zm.04-2.4-4.022,9.222h1.074l1.086-2.555h3.7l1.125,2.555h1.8l-4.047-9.222Z" transform="translate(-1.43 -219.651)" fill="#1a1818"/>
      <path id="Path_49" data-name="Path 49" d="M166.994,219.771v6.13l-5-6.13h-1.638v9.171h1.1V221.7l5.974,7.27h.667v-9.2Z" transform="translate(2.205 -219.639)" fill="#1a1818"/>
      <rect id="Rectangle_9" data-name="Rectangle 9" width="1.702" height="9.171" transform="translate(177.925 0.131)" fill="#1a1818"/>
      <g id="Group_14" data-name="Group 14" transform="translate(186.498)">
        <path id="Path_50" data-name="Path 50" d="M183.459,219.671a3.992,3.992,0,0,1,3.655,2.017l-.708.748a3.03,3.03,0,0,0-2.764-1.8c-1.808,0-3.039,1.35-3.039,3.722,0,2.423,1.4,3.719,3.026,3.732a2.941,2.941,0,0,0,2.79-1.715l.695.537a4.007,4.007,0,0,1-3.721,2.188,4.516,4.516,0,0,1-4.7-4.637,4.654,4.654,0,0,1,4.768-4.795" transform="translate(-178.691 -219.67)" fill="#1a1818"/>
        <path id="Path_51" data-name="Path 51" d="M193.838,225.212l-1.257-.341c-1.546-.432-2.463-1.086-2.463-2.514,0-1.572,1.4-2.687,3.341-2.687a3.879,3.879,0,0,1,3.392,1.651l-.693.747a3.075,3.075,0,0,0-2.711-1.493c-1.035,0-1.756.5-1.756,1.337,0,.772.486,1.1,1.572,1.388l1.27.354c1.506.406,2.476,1.1,2.476,2.527,0,1.808-1.572,2.922-3.536,2.922a4.294,4.294,0,0,1-3.812-1.952l.734-.681a3.535,3.535,0,0,0,3.078,1.677c1.114,0,1.978-.471,1.978-1.454,0-.851-.59-1.192-1.611-1.48" transform="translate(-175.341 -219.67)" fill="#1a1818"/>
      </g>
    </g>
  </g>
</svg>
